<svg width="1046" height="612" viewBox="0 0 1046 612" fill="none" xmlns="http://www.w3.org/2000/svg">
<rect width="1046" height="612" fill="#1E1E1E"/>
<g clip-path="url(#clip0_0_1)">
<rect width="1046" height="612" fill="#3D1547"/>
<ellipse cx="358" cy="39" rx="98" ry="95" fill="#582657"/>
<ellipse cx="219" cy="115" rx="98" ry="95" fill="#582657"/>
<ellipse cx="63" cy="79" rx="103" ry="111" fill="#582657"/>
<ellipse cx="410" cy="63" rx="98" ry="95" fill="#582657"/>
<ellipse cx="140" cy="300" rx="224" ry="207" fill="#582657"/>
<ellipse cx="423" cy="286" rx="224" ry="207" fill="#582657"/>
<ellipse cx="748" cy="65" rx="124" ry="121" fill="#6F3464"/>
<ellipse cx="441" cy="279" rx="124" ry="121" fill="#6F3464"/>
<ellipse cx="824" cy="429" rx="316" ry="286" fill="#6F3464"/>
<ellipse cx="289.353" cy="510.318" rx="342.241" ry="307.746" transform="rotate(-9.10925 289.353 510.318)" fill="#6F3464"/>
<ellipse cx="890" cy="142.5" rx="202" ry="205.5" fill="#6F3464"/>
<ellipse cx="564" cy="179" rx="124" ry="121" fill="#6F3464"/>
<ellipse cx="410" cy="181" rx="130" ry="98" fill="#6F3464"/>
<ellipse cx="13" cy="210" rx="109" ry="107" fill="#884472"/>
<ellipse cx="162.5" cy="462.5" rx="212.5" ry="176.5" fill="#884472"/>
<ellipse cx="43.7665" cy="279.079" rx="190" ry="107" transform="rotate(-23.1491 43.7665 279.079)" fill="#884472"/>
<ellipse cx="306" cy="372.5" rx="53" ry="55.5" fill="#884472"/>
<ellipse cx="932.5" cy="402.5" rx="160.5" ry="73.5" fill="#884472"/>
<ellipse cx="670.5" cy="554" rx="450.5" ry="147" fill="#884472"/>
<ellipse cx="389" cy="396.5" rx="53" ry="55.5" fill="#884472"/>
<ellipse cx="475.5" cy="434.5" rx="42.5" ry="44.5" fill="#884472"/>
<ellipse cx="577" cy="423.5" rx="53" ry="55.5" fill="#884472"/>
<ellipse cx="641.5" cy="388" rx="35.5" ry="47" fill="#884472"/>
<ellipse cx="783.5" cy="379.5" rx="41.5" ry="38.5" fill="#884472"/>
<ellipse cx="705" cy="396.5" rx="53" ry="55.5" fill="#884472"/>
<ellipse cx="873" cy="281" rx="127" ry="92" fill="#884472"/>
<ellipse cx="1037" cy="233.5" rx="132" ry="134.5" fill="#884472"/>
<ellipse cx="-11" cy="290" rx="109" ry="107" fill="#A25583"/>
<ellipse cx="138.5" cy="542.5" rx="212.5" ry="176.5" fill="#A25583"/>
<ellipse cx="15.389" cy="354.161" rx="189.061" ry="106.144" transform="rotate(-39.18 15.389 354.161)" fill="#A25583"/>
<ellipse cx="282" cy="452.5" rx="53" ry="55.5" fill="#A25583"/>
<ellipse cx="908.5" cy="482.5" rx="160.5" ry="73.5" fill="#A25583"/>
<ellipse cx="646.5" cy="634" rx="450.5" ry="147" fill="#A25583"/>
<ellipse cx="365" cy="476.5" rx="53" ry="55.5" fill="#A25583"/>
<ellipse cx="451.5" cy="514.5" rx="42.5" ry="44.5" fill="#A25583"/>
<ellipse cx="553" cy="503.5" rx="53" ry="55.5" fill="#A25583"/>
<ellipse cx="617.5" cy="468" rx="35.5" ry="47" fill="#A25583"/>
<ellipse cx="759.5" cy="459.5" rx="41.5" ry="38.5" fill="#A25583"/>
<ellipse cx="681" cy="476.5" rx="53" ry="55.5" fill="#A25583"/>
<ellipse cx="1011.55" cy="404.612" rx="141.214" ry="206.823" transform="rotate(8.59905 1011.55 404.612)" fill="#A25583"/>
<ellipse cx="889.5" cy="353" rx="96.5" ry="75" fill="#A25583"/>
<ellipse cx="980.722" cy="519.059" rx="160.5" ry="73.5" fill="#BB6491"/>
<ellipse cx="718.722" cy="670.559" rx="450.5" ry="147" fill="#BB6491"/>
<ellipse cx="523.722" cy="551.059" rx="42.5" ry="44.5" fill="#BB6491"/>
<ellipse cx="625.222" cy="540.059" rx="53" ry="55.5" fill="#BB6491"/>
<ellipse cx="689.722" cy="504.559" rx="35.5" ry="47" fill="#BB6491"/>
<ellipse cx="831.722" cy="496.059" rx="41.5" ry="38.5" fill="#BB6491"/>
<ellipse cx="753.222" cy="513.059" rx="53" ry="55.5" fill="#BB6491"/>
<ellipse cx="1083.77" cy="441.171" rx="141.214" ry="206.823" transform="rotate(8.59905 1083.77 441.171)" fill="#BB6491"/>
<ellipse cx="961.722" cy="389.559" rx="96.5" ry="75" fill="#BB6491"/>
<g filter="url(#filter0_f_0_1)">
<ellipse cx="317.972" cy="304.273" rx="160.75" ry="163.727" fill="#FFD093" fill-opacity="0.74"/>
</g>
<ellipse cx="324.222" cy="298.941" rx="135" ry="137.5" fill="#F9BF75"/>
<path d="M320.346 55.6607C321.372 51.6482 327.072 51.6482 328.097 55.6607L348.061 133.759C348.708 136.289 346.797 138.75 344.186 138.75H304.258C301.647 138.75 299.736 136.289 300.383 133.759L320.346 55.6607Z" fill="#F9BF75"/>
<path d="M78.1607 300.71C74.1482 299.684 74.1482 293.985 78.1607 292.959L156.259 272.995C158.789 272.349 161.25 274.26 161.25 276.871L161.25 316.798C161.25 319.409 158.789 321.32 156.259 320.674L78.1607 300.71Z" fill="#F9BF75"/>
<path d="M505.259 137.068C509.041 135.381 512.58 139.848 510.072 143.144L461.252 207.288C459.67 209.366 456.555 209.396 454.933 207.35L430.14 176.053C428.519 174.006 429.261 170.98 431.645 169.916L505.259 137.068Z" fill="#F9BF75"/>
<path d="M141.61 137.068C137.828 135.381 134.289 139.848 136.798 143.144L185.618 207.288C187.199 209.366 190.315 209.396 191.936 207.35L216.729 176.053C218.351 174.006 217.608 170.98 215.224 169.916L141.61 137.068Z" fill="#F9BF75"/>
<path d="M571.839 295.066C575.852 296.091 575.852 301.791 571.839 302.816L493.741 322.78C491.211 323.427 488.75 321.516 488.75 318.905L488.75 278.977C488.75 276.366 491.211 274.455 493.741 275.102L571.839 295.066Z" fill="#F9BF75"/>
<path d="M263.278 301.095C260.763 314.767 274.309 320.977 292.908 324.399C311.506 327.82 327.013 329.415 329.529 315.743C332.044 302.071 319.829 283.209 301.231 279.788C288.053 277.364 265.793 287.422 263.278 301.095Z" fill="#EE8581"/>
<path d="M442.823 301.095C445.338 314.767 431.792 320.977 413.194 324.399C394.595 327.82 379.088 329.415 376.573 315.743C374.058 302.071 386.272 283.209 404.871 279.788C418.048 277.364 440.308 287.422 442.823 301.095Z" fill="#EE8581"/>
<ellipse cx="201.5" cy="432.5" rx="107.5" ry="101.5" fill="#D473A0"/>
<ellipse cx="699.993" cy="608.86" rx="83.1191" ry="105.529" transform="rotate(59.8705 699.993 608.86)" fill="#D473A0"/>
<ellipse cx="971.78" cy="630.86" rx="64.2508" ry="72.2968" transform="rotate(59.8705 971.78 630.86)" fill="#D473A0"/>
<ellipse cx="852.852" cy="595.595" rx="66.3717" ry="82.1494" transform="rotate(142.063 852.852 595.595)" fill="#D473A0"/>
<ellipse cx="544.5" cy="630.5" rx="79.5" ry="45.5" fill="#D473A0"/>
<ellipse cx="170.5" cy="542.5" rx="285.5" ry="129.5" fill="#D473A0"/>
<ellipse cx="5" cy="381.5" rx="97" ry="101.5" fill="#D473A0"/>
<ellipse cx="438.5" cy="492.5" rx="54.5" ry="71.5" fill="#D473A0"/>
<ellipse cx="362.5" cy="472.5" rx="77.5" ry="75.5" fill="#D473A0"/>
<ellipse cx="423" cy="613.5" rx="70" ry="78.5" fill="#D473A0"/>
<ellipse cx="1029.33" cy="543.009" rx="57.71" ry="76.5942" transform="rotate(3.53704 1029.33 543.009)" fill="#D473A0"/>
</g>
<defs>
<filter id="filter0_f_0_1" x="83.2219" y="66.5463" width="469.5" height="475.454" filterUnits="userSpaceOnUse" color-interpolation-filters="sRGB">
<feFlood flood-opacity="0" result="BackgroundImageFix"/>
<feBlend mode="normal" in="SourceGraphic" in2="BackgroundImageFix" result="shape"/>
<feGaussianBlur stdDeviation="37" result="effect1_foregroundBlur_0_1"/>
</filter>
<clipPath id="clip0_0_1">
<rect width="1046" height="612" fill="white"/>
</clipPath>
</defs>
</svg>
